{
  "source": "C:\\Users\\Peter\\Desktop\\stuff\\MIUN\\quantitative_research\\video_compression\\videos\\HEVC_CLASS_B\\BQTerrace_1920x1080_60.y4m",
  "output": "C:\\Users\\Peter\\Desktop\\stuff\\MIUN\\quantitative_research\\video_compression\\compressed_videos\\HEVC_CLASS_B\\av1\\2\\BQTerrace_1920x1080_60_av1.mkv",
  "codec": "av1",
  "ok": "Input #0, yuv4mpegpipe, from 'C:\\Users\\Peter\\Desktop\\stuff\\MIUN\\quantitative_research\\video_compression\\videos\\HEVC_CLASS_B\\BQTerrace_1920x1080_60.y4m':\n  Duration: 00:00:10.00, start: 0.000000, bitrate: 1492994 kb/s\n  Stream #0:0: Video: rawvideo (I420 / 0x30323449), yuv420p(progressive), 1920x1080, 60 fps, 60 tbr, 60 tbn\n[out#0/matroska @ 00000134ca708ec0] Codec AVOption b:a (set bitrate (in bits/s)) has not been used for any stream. The most likely reason is either wrong type (e.g. a video option with no video streams) or that it is a private option of some decoder which was not actually used for any stream.\nStream mapping:\n  Stream #0:0 -> #0:0 (rawvideo (native) -> av1 (libsvtav1))\nPress [q] to stop, [?] for help\nSvt[info]: -------------------------------------------\nSvt[info]: SVT [version]:\tSVT-AV1 Encoder Lib v3.1.0-19-g6ecfe8ec\nSvt[info]: SVT [build]  :\tGCC 15.2.0\t 64 bit\nSvt[info]: LIB Build date: Aug 17 2025 11:37:13\nSvt[info]: -------------------------------------------\n[libsvtav1 @ 00000134ca70c080] Specified chroma sample location center is unsupported on the AV1 bit stream level. Usage of a container that allows passing this information - such as Matroska - is recommended.\nSvt[info]: Level of Parallelism: 5\nSvt[info]: Number of PPCS 93\nSvt[info]: [asm level on system : up to avx2]\nSvt[info]: [asm level selected : up to avx2]\nSvt[info]: -------------------------------------------\nSvt[info]: SVT [config]: main profile\ttier (auto)\tlevel (auto)\nSvt[info]: SVT [config]: width / height / fps numerator / fps denominator \t\t: 1920 / 1080 / 60 / 1\nSvt[info]: SVT [config]: bit-depth / color format \t\t\t\t\t: 8 / YUV420\nSvt[info]: SVT [config]: preset / tune / pred struct \t\t\t\t\t: 4 / PSNR / random access\nSvt[info]: SVT [config]: gop size / mini-gop size / key-frame type \t\t\t: 321 / 16 / key frame\nSvt[info]: SVT [config]: BRC mode / target bitrate (kbps)\t\t\t\t: VBR / 2000 \nSvt[info]: SVT [config]: AQ mode / Variance Boost \t\t\t\t\t: 2 / 0\nSvt[info]: SVT [config]: sharpness / luminance-based QP bias \t\t\t\t: 0 / 0\nSvt[info]: SVT [config]: QP scale compress strength \t\t\t\t\t: 0\nSvt[info]: -------------------------------------------\nOutput #0, matroska, to 'C:\\Users\\Peter\\Desktop\\stuff\\MIUN\\quantitative_research\\video_compression\\compressed_videos\\HEVC_CLASS_B\\av1\\2\\BQTerrace_1920x1080_60_av1.mkv':\n  Metadata:\n    encoder         : Lavf62.3.100\n  Stream #0:0: Video: av1 (AV01 / 0x31305641), yuv420p(tv, progressive), 1920x1080, q=2-31, 2000 kb/s, 60 fps, 1k tbn\n    Metadata:\n      encoder         : Lavc62.11.100 libsvtav1\n    Side data:\n      cpb: bitrate max/min/avg: 0/0/2000000 buffer size: 2000000 vbv_delay: N/A\nframe=    0 fps=0.0 q=0.0 size=       0KiB time=N/A bitrate=N/A speed=N/A elapsed=0:00:02.30    \nframe=    0 fps=0.0 q=0.0 size=       0KiB time=N/A bitrate=N/A speed=N/A elapsed=0:00:03.08    \nframe=    0 fps=0.0 q=0.0 size=       0KiB time=N/A bitrate=N/A speed=N/A elapsed=0:00:04.41    \nframe=    0 fps=0.0 q=0.0 size=       0KiB time=N/A bitrate=N/A speed=N/A elapsed=0:00:05.22    \nframe=    0 fps=0.0 q=0.0 size=       0KiB time=N/A bitrate=N/A speed=N/A elapsed=0:00:05.76    \nframe=    0 fps=0.0 q=0.0 size=       0KiB time=N/A bitrate=N/A speed=N/A elapsed=0:00:06.40    \nframe=    0 fps=0.0 q=0.0 size=       0KiB time=N/A bitrate=N/A speed=N/A elapsed=0:00:07.06    \nframe=    0 fps=0.0 q=0.0 size=       0KiB time=N/A bitrate=N/A speed=N/A elapsed=0:00:07.64    \nframe=    0 fps=0.0 q=0.0 size=       0KiB time=N/A bitrate=N/A speed=N/A elapsed=0:00:08.26    \nframe=    0 fps=0.0 q=0.0 size=       0KiB time=N/A bitrate=N/A speed=N/A elapsed=0:00:08.79    \nframe=    0 fps=0.0 q=0.0 size=       0KiB time=N/A bitrate=N/A speed=N/A elapsed=0:00:09.35    \nframe=    0 fps=0.0 q=0.0 size=       0KiB time=N/A bitrate=N/A speed=N/A elapsed=0:00:09.91    \nframe=    0 fps=0.0 q=0.0 size=       0KiB time=N/A bitrate=N/A speed=N/A elapsed=0:00:10.43    \nframe=    0 fps=0.0 q=0.0 size=       0KiB time=N/A bitrate=N/A speed=N/A elapsed=0:00:11.03    \nframe=    0 fps=0.0 q=0.0 size=       0KiB time=N/A bitrate=N/A speed=N/A elapsed=0:00:11.56    \nframe=    0 fps=0.0 q=0.0 size=       0KiB time=N/A bitrate=N/A speed=N/A elapsed=0:00:12.15    \nframe=    0 fps=0.0 q=0.0 size=       0KiB time=N/A bitrate=N/A speed=N/A elapsed=0:00:12.71    \nframe=    0 fps=0.0 q=0.0 size=       0KiB time=N/A bitrate=N/A speed=N/A elapsed=0:00:13.24    \nframe=    0 fps=0.0 q=0.0 size=       0KiB time=N/A bitrate=N/A speed=N/A elapsed=0:00:13.76    \nframe=    0 fps=0.0 q=0.0 size=       0KiB time=N/A bitrate=N/A speed=N/A elapsed=0:00:14.33    \nframe=    0 fps=0.0 q=0.0 size=       0KiB time=N/A bitrate=N/A speed=N/A elapsed=0:00:14.84    \nframe=    0 fps=0.0 q=0.0 size=       0KiB time=N/A bitrate=N/A speed=N/A elapsed=0:00:15.37    \nframe=    1 fps=0.1 q=26.0 size=       1KiB time=00:00:00.00 bitrate=N/A speed=   0x elapsed=0:00:15.95    \nframe=    1 fps=0.1 q=26.0 size=       1KiB time=00:00:00.00 bitrate=N/A speed=   0x elapsed=0:00:16.52    \nframe=    1 fps=0.1 q=26.0 size=       1KiB time=00:00:00.00 bitrate=N/A speed=   0x elapsed=0:00:17.08    \nframe=    1 fps=0.1 q=26.0 size=       1KiB time=00:00:00.00 bitrate=N/A speed=   0x elapsed=0:00:17.61    \nframe=    1 fps=0.1 q=26.0 size=       1KiB time=00:00:00.00 bitrate=N/A speed=   0x elapsed=0:00:18.20    \nframe=    1 fps=0.1 q=26.0 size=       1KiB time=00:00:00.00 bitrate=N/A speed=   0x elapsed=0:00:18.75    \nframe=    1 fps=0.1 q=26.0 size=       1KiB time=00:00:00.00 bitrate=N/A speed=   0x elapsed=0:00:19.28    \nframe=    1 fps=0.1 q=26.0 size=       1KiB time=00:00:00.00 bitrate=N/A speed=   0x elapsed=0:00:19.80    \nframe=    1 fps=0.0 q=26.0 size=       1KiB time=00:00:00.00 bitrate=N/A speed=   0x elapsed=0:00:20.35    \nframe=    1 fps=0.0 q=26.0 size=       1KiB time=00:00:00.00 bitrate=N/A speed=   0x elapsed=0:00:20.86    \nframe=    3 fps=0.1 q=53.0 size=       1KiB time=00:00:00.03 bitrate= 134.4kbits/s speed=0.00155x elapsed=0:00:21.44    \nframe=    4 fps=0.2 q=57.0 size=       1KiB time=00:00:00.05 bitrate=  89.6kbits/s speed=0.00227x elapsed=0:00:22.01    \nframe=    6 fps=0.3 q=53.0 size=       1KiB time=00:00:00.08 bitrate=  53.8kbits/s speed=0.00369x elapsed=0:00:22.56    \nframe=    7 fps=0.3 q=53.0 size=       1KiB time=00:00:00.10 bitrate=  44.8kbits/s speed=0.00433x elapsed=0:00:23.07    \nframe=   10 fps=0.4 q=52.0 size=       1KiB time=00:00:00.15 bitrate=  29.9kbits/s speed=0.00635x elapsed=0:00:23.64    \nframe=   12 fps=0.5 q=51.0 size=       1KiB time=00:00:00.18 bitrate=  24.4kbits/s speed=0.00759x elapsed=0:00:24.15    \nframe=   13 fps=0.5 q=52.0 size=       1KiB time=00:00:00.20 bitrate=  22.4kbits/s speed=0.0081x elapsed=0:00:24.67    \nframe=   13 fps=0.5 q=52.0 size=       1KiB time=00:00:00.20 bitrate=  22.4kbits/s speed=0.00791x elapsed=0:00:25.29    \nframe=   14 fps=0.5 q=50.0 size=       1KiB time=00:00:00.21 bitrate=  20.7kbits/s speed=0.00839x elapsed=0:00:25.82    \nframe=   14 fps=0.5 q=50.0 size=       1KiB time=00:00:00.21 bitrate=  20.7kbits/s speed=0.00822x elapsed=0:00:26.36    \nframe=   14 fps=0.5 q=50.0 size=       1KiB time=00:00:00.21 bitrate=  20.7kbits/s speed=0.00806x elapsed=0:00:26.89    \nframe=   15 fps=0.5 q=51.0 size=       1KiB time=00:00:00.23 bitrate=  19.2kbits/s speed=0.0085x elapsed=0:00:27.44    \nframe=   15 fps=0.5 q=51.0 size=       1KiB time=00:00:00.23 bitrate=  19.2kbits/s speed=0.00833x elapsed=0:00:28.00    \nframe=   17 fps=0.6 q=33.0 size=       1KiB time=00:00:00.26 bitrate=  16.8kbits/s speed=0.00935x elapsed=0:00:28.52    \nframe=   19 fps=0.7 q=47.0 size=       1KiB time=00:00:00.30 bitrate=  14.9kbits/s speed=0.0103x elapsed=0:00:29.06    \nframe=   20 fps=0.7 q=46.0 size=       1KiB time=00:00:00.31 bitrate=  14.1kbits/s speed=0.0107x elapsed=0:00:29.57    \nframe=   22 fps=0.7 q=45.0 size=       1KiB time=00:00:00.35 bitrate=  12.8kbits/s speed=0.0116x elapsed=0:00:30.09    \nframe=   22 fps=0.7 q=45.0 size=       1KiB time=00:00:00.35 bitrate=  12.8kbits/s speed=0.0114x elapsed=0:00:30.59    \nframe=   23 fps=0.7 q=46.0 size=       1KiB time=00:00:00.36 bitrate=  12.2kbits/s speed=0.0118x elapsed=0:00:31.11    \nframe=   25 fps=0.8 q=41.0 size=       1KiB time=00:00:00.40 bitrate=  11.2kbits/s speed=0.0126x elapsed=0:00:31.63    \nframe=   26 fps=0.8 q=43.0 size=       1KiB time=00:00:00.41 bitrate=  10.8kbits/s speed=0.0129x elapsed=0:00:32.17    \nframe=   27 fps=0.8 q=44.0 size=       1KiB time=00:00:00.43 bitrate=  10.3kbits/s speed=0.0132x elapsed=0:00:32.71    \nframe=   28 fps=0.8 q=43.0 size=       1KiB time=00:00:00.45 bitrate=  10.0kbits/s speed=0.0135x elapsed=0:00:33.25    \nframe=   29 fps=0.9 q=45.0 size=       1KiB time=00:00:00.46 bitrate=   9.6kbits/s speed=0.0138x elapsed=0:00:33.78    \nframe=   31 fps=0.9 q=43.0 size=       1KiB time=00:00:00.50 bitrate=   9.0kbits/s speed=0.0146x elapsed=0:00:34.29    \nframe=   31 fps=0.9 q=43.0 size=       1KiB time=00:00:00.50 bitrate=   9.0kbits/s speed=0.0144x elapsed=0:00:34.80    \nframe=   32 fps=0.9 q=42.0 size=       1KiB time=00:00:00.51 bitrate=   8.7kbits/s speed=0.0146x elapsed=0:00:35.34    \nframe=   32 fps=0.9 q=42.0 size=       1KiB time=00:00:00.51 bitrate=   8.7kbits/s speed=0.0144x elapsed=0:00:35.87    \nframe=   33 fps=0.9 q=34.0 size=       1KiB time=00:00:00.53 bitrate=   8.4kbits/s speed=0.0146x elapsed=0:00:36.46    \nframe=   34 fps=0.9 q=41.0 size=       1KiB time=00:00:00.55 bitrate=   8.1kbits/s speed=0.0149x elapsed=0:00:37.02    \nframe=   35 fps=0.9 q=43.0 size=       1KiB time=00:00:00.56 bitrate=   7.9kbits/s speed=0.0151x elapsed=0:00:37.61    \nframe=   36 fps=0.9 q=40.0 size=       1KiB time=00:00:00.58 bitrate=   7.7kbits/s speed=0.0153x elapsed=0:00:38.16    \nframe=   38 fps=1.0 q=40.0 size=       1KiB time=00:00:00.61 bitrate=   7.3kbits/s speed=0.0159x elapsed=0:00:38.67    \nframe=   38 fps=1.0 q=40.0 size=       1KiB time=00:00:00.61 bitrate=   7.3kbits/s speed=0.0157x elapsed=0:00:39.25    \nframe=   39 fps=1.0 q=43.0 size=       1KiB time=00:00:00.63 bitrate=   7.1kbits/s speed=0.0159x elapsed=0:00:39.78    \nframe=   40 fps=1.0 q=40.0 size=       1KiB time=00:00:00.65 bitrate=   6.9kbits/s speed=0.0161x elapsed=0:00:40.32    \nframe=   41 fps=1.0 q=36.0 size=       1KiB time=00:00:00.66 bitrate=   6.7kbits/s speed=0.0163x elapsed=0:00:40.87    \nframe=   42 fps=1.0 q=39.0 size=       1KiB time=00:00:00.68 bitrate=   6.6kbits/s speed=0.0165x elapsed=0:00:41.40    \nframe=   43 fps=1.0 q=43.0 size=       1KiB time=00:00:00.70 bitrate=   6.4kbits/s speed=0.0167x elapsed=0:00:41.92    \nframe=   45 fps=1.1 q=44.0 size=       1KiB time=00:00:00.71 bitrate=   6.3kbits/s speed=0.0169x elapsed=0:00:42.48    \nframe=   47 fps=1.1 q=42.0 size=       1KiB time=00:00:00.75 bitrate=   6.0kbits/s speed=0.0174x elapsed=0:00:43.02    \nframe=   47 fps=1.1 q=42.0 size=       1KiB time=00:00:00.76 bitrate=   5.8kbits/s speed=0.0176x elapsed=0:00:43.57    \nframe=   48 fps=1.1 q=41.0 size=       1KiB time=00:00:00.78 bitrate=   5.7kbits/s speed=0.0178x elapsed=0:00:44.11    \nframe=   48 fps=1.1 q=41.0 size=       1KiB time=00:00:00.78 bitrate=   5.7kbits/s speed=0.0175x elapsed=0:00:44.66    \nframe=   50 fps=1.1 q=42.0 size=       1KiB time=00:00:00.81 bitrate=   5.5kbits/s speed=0.0181x elapsed=0:00:45.19    \nframe=   51 fps=1.1 q=43.0 size=       1KiB time=00:00:00.83 bitrate=   5.4kbits/s speed=0.0182x elapsed=0:00:45.74    \nframe=   51 fps=1.1 q=43.0 size=       1KiB time=00:00:00.83 bitrate=   5.4kbits/s speed=0.018x elapsed=0:00:46.26    \nframe=   52 fps=1.1 q=41.0 size=       1KiB time=00:00:00.85 bitrate=   5.3kbits/s speed=0.0181x elapsed=0:00:46.83    \nframe=   53 fps=1.1 q=44.0 size=       1KiB time=00:00:00.86 bitrate=   5.2kbits/s speed=0.0183x elapsed=0:00:47.36    \nframe=   54 fps=1.1 q=41.0 size=       1KiB time=00:00:00.88 bitrate=   5.1kbits/s speed=0.0184x elapsed=0:00:47.88    \nframe=   55 fps=1.1 q=43.0 size=       1KiB time=00:00:00.90 bitrate=   5.0kbits/s speed=0.0186x elapsed=0:00:48.42    \nframe=   56 fps=1.1 q=41.0 size=       1KiB time=00:00:00.91 bitrate=   4.9kbits/s speed=0.0187x elapsed=0:00:48.94    \nframe=   57 fps=1.2 q=35.0 size=       1KiB time=00:00:00.93 bitrate=   4.8kbits/s speed=0.0189x elapsed=0:00:49.50    \nframe=   58 fps=1.2 q=41.0 size=       1KiB time=00:00:00.95 bitrate=   4.7kbits/s speed=0.019x elapsed=0:00:50.02    \nframe=   60 fps=1.2 q=41.0 size=       1KiB time=00:00:00.98 bitrate=   4.6kbits/s speed=0.0195x elapsed=0:00:50.53    \nframe=   61 fps=1.2 q=44.0 size=       1KiB time=00:00:01.00 bitrate=   4.5kbits/s speed=0.0196x elapsed=0:00:51.09    \nframe=   62 fps=1.2 q=41.0 size=       1KiB time=00:00:01.01 bitrate=   4.4kbits/s speed=0.0197x elapsed=0:00:51.65    \nframe=   62 fps=1.2 q=41.0 size=       1KiB time=00:00:01.01 bitrate=   4.4kbits/s speed=0.0195x elapsed=0:00:52.16    \nframe=   63 fps=1.2 q=43.0 size=       1KiB time=00:00:01.03 bitrate=   4.3kbits/s speed=0.0196x elapsed=0:00:52.70    \nframe=   64 fps=1.2 q=37.0 size=       1KiB time=00:00:01.05 bitrate=   4.3kbits/s speed=0.0197x elapsed=0:00:53.22    \nframe=   65 fps=1.2 q=25.0 size=       1KiB time=00:00:01.06 bitrate=   4.2kbits/s speed=0.0198x elapsed=0:00:53.76    \nframe=   66 fps=1.2 q=43.0 size=       1KiB time=00:00:01.08 bitrate=   4.1kbits/s speed=0.02x elapsed=0:00:54.27    \nframe=   67 fps=1.2 q=44.0 size=       1KiB time=00:00:01.10 bitrate=   4.1kbits/s speed=0.0201x elapsed=0:00:54.78    \nframe=   69 fps=1.2 q=44.0 size=       1KiB time=00:00:01.13 bitrate=   4.0kbits/s speed=0.0205x elapsed=0:00:55.30    \nframe=   70 fps=1.3 q=44.0 size=       1KiB time=00:00:01.15 bitrate=   3.9kbits/s speed=0.0206x elapsed=0:00:55.86    \nframe=   71 fps=1.3 q=44.0 size=       1KiB time=00:00:01.16 bitrate=   3.8kbits/s speed=0.0207x elapsed=0:00:56.41    \nframe=   72 fps=1.3 q=44.0 size=       1KiB time=00:00:01.18 bitrate=   3.8kbits/s speed=0.0208x elapsed=0:00:56.95    \nframe=   73 fps=1.3 q=36.0 size=       1KiB time=00:00:01.20 bitrate=   3.7kbits/s speed=0.0208x elapsed=0:00:57.57    \nframe=   74 fps=1.3 q=44.0 size=       1KiB time=00:00:01.21 bitrate=   3.7kbits/s speed=0.0209x elapsed=0:00:58.08    \nframe=   75 fps=1.3 q=44.0 size=       1KiB time=00:00:01.23 bitrate=   3.6kbits/s speed=0.021x elapsed=0:00:58.65    \nframe=   77 fps=1.3 q=44.0 size=       1KiB time=00:00:01.26 bitrate=   3.5kbits/s speed=0.0214x elapsed=0:00:59.16    \nframe=   78 fps=1.3 q=44.0 size=       1KiB time=00:00:01.28 bitrate=   3.5kbits/s speed=0.0215x elapsed=0:00:59.68    \nframe=   78 fps=1.3 q=44.0 size=       1KiB time=00:00:01.28 bitrate=   3.5kbits/s speed=0.0213x elapsed=0:01:00.19    \nframe=   79 fps=1.3 q=44.0 size=       1KiB time=00:00:01.30 bitrate=   3.4kbits/s speed=0.0214x elapsed=0:01:00.73    \nframe=   81 fps=1.3 q=26.0 size=       1KiB time=00:00:01.33 bitrate=   3.4kbits/s speed=0.0218x elapsed=0:01:01.26    \nframe=   82 fps=1.3 q=45.0 size=       1KiB time=00:00:01.35 bitrate=   3.3kbits/s speed=0.0218x elapsed=0:01:01.82    \nframe=   83 fps=1.3 q=44.0 size=       1KiB time=00:00:01.36 bitrate=   3.3kbits/s speed=0.0219x elapsed=0:01:02.39    \nframe=   86 fps=1.4 q=46.0 size=       1KiB time=00:00:01.41 bitrate=   3.2kbits/s speed=0.0225x elapsed=0:01:02.93    \nframe=   86 fps=1.4 q=46.0 size=       1KiB time=00:00:01.41 bitrate=   3.2kbits/s speed=0.0223x elapsed=0:01:03.46    \nframe=   87 fps=1.4 q=45.0 size=       1KiB time=00:00:01.43 bitrate=   3.1kbits/s speed=0.0224x elapsed=0:01:03.99    \nframe=   89 fps=1.4 q=36.0 size=       1KiB time=00:00:01.46 bitrate=   3.1kbits/s speed=0.0227x elapsed=0:01:04.52    \nframe=   91 fps=1.4 q=45.0 size=       1KiB time=00:00:01.50 bitrate=   3.0kbits/s speed=0.0231x elapsed=0:01:05.05    \nframe=   93 fps=1.4 q=43.0 size=       1KiB time=00:00:01.53 bitrate=   2.9kbits/s speed=0.0234x elapsed=0:01:05.59    \nframe=   95 fps=1.4 q=45.0 size=       1KiB time=00:00:01.56 bitrate=   2.9kbits/s speed=0.0237x elapsed=0:01:06.10    \nframe=   95 fps=1.4 q=45.0 size=       1KiB time=00:00:01.56 bitrate=   2.9kbits/s speed=0.0235x elapsed=0:01:06.63    \nframe=   96 fps=1.4 q=46.0 size=       1KiB time=00:00:01.58 bitrate=   2.8kbits/s speed=0.0236x elapsed=0:01:07.20    \nframe=   98 fps=1.4 q=47.0 size=       1KiB time=00:00:01.60 bitrate=   2.8kbits/s speed=0.0236x elapsed=0:01:07.78    \nframe=   99 fps=1.4 q=46.0 size=       1KiB time=00:00:01.63 bitrate=   2.7kbits/s speed=0.0239x elapsed=0:01:08.34    \nframe=  101 fps=1.5 q=44.0 size=       1KiB time=00:00:01.66 bitrate=   2.7kbits/s speed=0.0242x elapsed=0:01:08.95    \nframe=  102 fps=1.5 q=47.0 size=       1KiB time=00:00:01.68 bitrate=   2.7kbits/s speed=0.0242x elapsed=0:01:09.49    \nframe=  102 fps=1.5 q=47.0 size=       1KiB time=00:00:01.68 bitrate=   2.7kbits/s speed=0.024x elapsed=0:01:10.03    \nframe=  103 fps=1.5 q=46.0 size=       1KiB time=00:00:01.70 bitrate=   2.6kbits/s speed=0.0241x elapsed=0:01:10.57    \nframe=  105 fps=1.5 q=37.0 size=       1KiB time=00:00:01.73 bitrate=   2.6kbits/s speed=0.0244x elapsed=0:01:11.11    \nframe=  106 fps=1.5 q=47.0 size=       1KiB time=00:00:01.75 bitrate=   2.6kbits/s speed=0.0244x elapsed=0:01:11.64    \nframe=  107 fps=1.5 q=46.0 size=       1KiB time=00:00:01.76 bitrate=   2.5kbits/s speed=0.0245x elapsed=0:01:12.19    \nframe=  110 fps=1.5 q=47.0 size=       1KiB time=00:00:01.81 bitrate=   2.5kbits/s speed=0.025x elapsed=0:01:12.71    \nframe=  110 fps=1.5 q=47.0 size=       1KiB time=00:00:01.81 bitrate=   2.5kbits/s speed=0.0248x elapsed=0:01:13.29    \nframe=  110 fps=1.5 q=47.0 size=       1KiB time=00:00:01.81 bitrate=   2.5kbits/s speed=0.0246x elapsed=0:01:13.82    \nframe=  111 fps=1.5 q=46.0 size=       1KiB time=00:00:01.83 bitrate=   2.4kbits/s speed=0.0247x elapsed=0:01:14.36    \nframe=  111 fps=1.5 q=46.0 size=       1KiB time=00:00:01.83 bitrate=   2.4kbits/s speed=0.0245x elapsed=0:01:14.91    \nframe=  112 fps=1.5 q=47.0 size=       1KiB time=00:00:01.85 bitrate=   2.4kbits/s speed=0.0245x elapsed=0:01:15.47    \nframe=  114 fps=1.5 q=47.0 size=       1KiB time=00:00:01.88 bitrate=   2.4kbits/s speed=0.0248x elapsed=0:01:16.00    \nframe=  117 fps=1.5 q=44.0 size=       1KiB time=00:00:01.93 bitrate=   2.3kbits/s speed=0.0252x elapsed=0:01:16.57    \nframe=  118 fps=1.5 q=47.0 size=       1KiB time=00:00:01.95 bitrate=   2.3kbits/s speed=0.0253x elapsed=0:01:17.09    \nframe=  119 fps=1.5 q=46.0 size=       1KiB time=00:00:01.96 bitrate=   2.3kbits/s speed=0.0253x elapsed=0:01:17.60    \nframe=  120 fps=1.5 q=47.0 size=       1KiB time=00:00:01.98 bitrate=   2.3kbits/s speed=0.0254x elapsed=0:01:18.15    \nframe=  122 fps=1.6 q=47.0 size=       1KiB time=00:00:02.01 bitrate=   2.2kbits/s speed=0.0256x elapsed=0:01:18.70    \nframe=  124 fps=1.6 q=47.0 size=       1KiB time=00:00:02.03 bitrate=   2.2kbits/s speed=0.0257x elapsed=0:01:19.27    \nframe=  125 fps=1.6 q=44.0 size=       1KiB time=00:00:02.06 bitrate=   2.2kbits/s speed=0.0259x elapsed=0:01:19.80    \nframe=  126 fps=1.6 q=47.0 size=       1KiB time=00:00:02.08 bitrate=   2.2kbits/s speed=0.0259x elapsed=0:01:20.34    \nframe=  126 fps=1.6 q=47.0 size=       1KiB time=00:00:02.08 bitrate=   2.2kbits/s speed=0.0258x elapsed=0:01:20.85    \nframe=  127 fps=1.6 q=46.0 size=       1KiB time=00:00:02.10 bitrate=   2.1kbits/s speed=0.0258x elapsed=0:01:21.36    \nframe=  127 fps=1.6 q=46.0 size=       1KiB time=00:00:02.10 bitrate=   2.1kbits/s speed=0.0256x elapsed=0:01:21.88    \nframe=  129 fps=1.6 q=31.0 size=       1KiB time=00:00:02.13 bitrate=   2.1kbits/s speed=0.0259x elapsed=0:01:22.44    \nframe=  131 fps=1.6 q=46.0 size=       1KiB time=00:00:02.16 bitrate=   2.1kbits/s speed=0.0261x elapsed=0:01:22.96    \nframe=  132 fps=1.6 q=47.0 size=       1KiB time=00:00:02.18 bitrate=   2.1kbits/s speed=0.0261x elapsed=0:01:23.52    \nframe=  134 fps=1.6 q=47.0 size=       1KiB time=00:00:02.21 bitrate=   2.0kbits/s speed=0.0264x elapsed=0:01:24.07    \nframe=  135 fps=1.6 q=46.0 size=       1KiB time=00:00:02.23 bitrate=   2.0kbits/s speed=0.0264x elapsed=0:01:24.58    \nframe=  137 fps=1.6 q=39.0 size=       1KiB time=00:00:02.26 bitrate=   2.0kbits/s speed=0.0266x elapsed=0:01:25.10    \nframe=  138 fps=1.6 q=47.0 size=       1KiB time=00:00:02.28 bitrate=   2.0kbits/s speed=0.0267x elapsed=0:01:25.67    \nframe=  140 fps=1.6 q=47.0 size=       1KiB time=00:00:02.31 bitrate=   1.9kbits/s speed=0.0269x elapsed=0:01:26.25    \nframe=  142 fps=1.6 q=47.0 size=       1KiB time=00:00:02.33 bitrate=   1.9kbits/s speed=0.0269x elapsed=0:01:26.87    \nframe=  142 fps=1.6 q=47.0 size=       1KiB time=00:00:02.35 bitrate=   1.9kbits/s speed=0.0269x elapsed=0:01:27.47    \nframe=  143 fps=1.6 q=46.0 size=       1KiB time=00:00:02.36 bitrate=   1.9kbits/s speed=0.0269x elapsed=0:01:28.01    \nframe=  144 fps=1.6 q=47.0 size=       1KiB time=00:00:02.38 bitrate=   1.9kbits/s speed=0.0269x elapsed=0:01:28.55    \nframe=  146 fps=1.6 q=46.0 size=       1KiB time=00:00:02.40 bitrate=   1.9kbits/s speed=0.0269x elapsed=0:01:29.11    \nframe=  147 fps=1.6 q=45.0 size=       1KiB time=00:00:02.43 bitrate=   1.8kbits/s speed=0.0271x elapsed=0:01:29.68    \nframe=  150 fps=1.7 q=46.0 size=       1KiB time=00:00:02.48 bitrate=   1.8kbits/s speed=0.0275x elapsed=0:01:30.21    \nframe=  151 fps=1.7 q=45.0 size=       1KiB time=00:00:02.50 bitrate=   1.8kbits/s speed=0.0275x elapsed=0:01:30.76    \nframe=  153 fps=1.7 q=39.0 size=       1KiB time=00:00:02.53 bitrate=   1.8kbits/s speed=0.0277x elapsed=0:01:31.29    \nframe=  154 fps=1.7 q=46.0 size=       1KiB time=00:00:02.55 bitrate=   1.8kbits/s speed=0.0278x elapsed=0:01:31.84    \nframe=  157 fps=1.7 q=43.0 size=       1KiB time=00:00:02.60 bitrate=   1.7kbits/s speed=0.0281x elapsed=0:01:32.41    \nframe=  157 fps=1.7 q=43.0 size=       1KiB time=00:00:02.60 bitrate=   1.7kbits/s speed=0.028x elapsed=0:01:32.94    \nframe=  158 fps=1.7 q=46.0 size=       1KiB time=00:00:02.61 bitrate=   1.7kbits/s speed=0.028x elapsed=0:01:33.50    \nframe=  158 fps=1.7 q=46.0 size=       1KiB time=00:00:02.61 bitrate=   1.7kbits/s speed=0.0278x elapsed=0:01:34.06    \nframe=  159 fps=1.7 q=45.0 size=       1KiB time=00:00:02.61 bitrate=   1.7kbits/s speed=0.0277x elapsed=0:01:34.61    \nframe=  159 fps=1.7 q=45.0 size=       1KiB time=00:00:02.63 bitrate=   1.7kbits/s speed=0.0277x elapsed=0:01:35.15    \nframe=  161 fps=1.7 q=30.0 size=       1KiB time=00:00:02.66 bitrate=   1.7kbits/s speed=0.0279x elapsed=0:01:35.66    \nframe=  163 fps=1.7 q=45.0 size=       1KiB time=00:00:02.70 bitrate=   1.7kbits/s speed=0.0281x elapsed=0:01:36.23    \nframe=  164 fps=1.7 q=46.0 size=       1KiB time=00:00:02.70 bitrate=   1.7kbits/s speed=0.0279x elapsed=0:01:36.78    \nframe=  166 fps=1.7 q=46.0 size=       1KiB time=00:00:02.75 bitrate=   1.6kbits/s speed=0.0282x elapsed=0:01:37.44    \nframe=  166 fps=1.7 q=46.0 size=       1KiB time=00:00:02.75 bitrate=   1.6kbits/s speed=0.0281x elapsed=0:01:37.97    \nframe=  167 fps=1.7 q=45.0 size=       1KiB time=00:00:02.76 bitrate=   1.6kbits/s speed=0.0281x elapsed=0:01:38.59    \nframe=  169 fps=1.7 q=38.0 size=       1KiB time=00:00:02.78 bitrate=   1.6kbits/s speed=0.0281x elapsed=0:01:39.13    \nframe=  170 fps=1.7 q=46.0 size=       1KiB time=00:00:02.81 bitrate=   1.6kbits/s speed=0.0283x elapsed=0:01:39.67    \nframe=  171 fps=1.7 q=45.0 size=       1KiB time=00:00:02.83 bitrate=   1.6kbits/s speed=0.0283x elapsed=0:01:40.21    \nframe=  173 fps=1.7 q=43.0 size=       1KiB time=00:00:02.85 bitrate=   1.6kbits/s speed=0.0283x elapsed=0:01:40.77    \nframe=  174 fps=1.7 q=46.0 size=       1KiB time=00:00:02.88 bitrate=   1.6kbits/s speed=0.0285x elapsed=0:01:41.31    \nframe=  174 fps=1.7 q=46.0 size=       1KiB time=00:00:02.88 bitrate=   1.6kbits/s speed=0.0283x elapsed=0:01:41.83    \nframe=  175 fps=1.7 q=45.0 size=       1KiB time=00:00:02.90 bitrate=   1.5kbits/s speed=0.0283x elapsed=0:01:42.37    \nframe=  176 fps=1.7 q=46.0 size=       1KiB time=00:00:02.91 bitrate=   1.5kbits/s speed=0.0283x elapsed=0:01:42.89    \nframe=  178 fps=1.7 q=47.0 size=       1KiB time=00:00:02.95 bitrate=   1.5kbits/s speed=0.0285x elapsed=0:01:43.42    \nframe=  180 fps=1.7 q=47.0 size=       1KiB time=00:00:02.98 bitrate=   1.5kbits/s speed=0.0287x elapsed=0:01:43.95    \nframe=  182 fps=1.7 q=47.0 size=       1KiB time=00:00:03.01 bitrate=   1.5kbits/s speed=0.0289x elapsed=0:01:44.49    \nframe=  185 fps=1.8 q=38.0 size=       1KiB time=00:00:03.05 bitrate=   1.5kbits/s speed=0.029x elapsed=0:01:45.29    \nframe=  188 fps=1.8 q=47.0 size=       1KiB time=00:00:03.10 bitrate=   1.4kbits/s speed=0.0292x elapsed=0:01:46.19    \nframe=  190 fps=1.8 q=47.0 size=       1KiB time=00:00:03.15 bitrate=   1.4kbits/s speed=0.0294x elapsed=0:01:46.99    \nframe=  192 fps=1.8 q=47.0 size=       1KiB time=00:00:03.16 bitrate=   1.4kbits/s speed=0.0294x elapsed=0:01:47.83    \nframe=  194 fps=1.8 q=47.0 size=       1KiB time=00:00:03.20 bitrate=   1.4kbits/s speed=0.0294x elapsed=0:01:48.77    \nframe=  198 fps=1.8 q=47.0 size=       1KiB time=00:00:03.26 bitrate=   1.4kbits/s speed=0.0298x elapsed=0:01:49.56    \nframe=  199 fps=1.8 q=46.0 size=       1KiB time=00:00:03.30 bitrate=   1.4kbits/s speed=0.0299x elapsed=0:01:50.35    \nframe=  201 fps=1.8 q=38.0 size=       1KiB time=00:00:03.33 bitrate=   1.3kbits/s speed=0.0301x elapsed=0:01:50.91    \nframe=  203 fps=1.8 q=46.0 size=       1KiB time=00:00:03.36 bitrate=   1.3kbits/s speed=0.0302x elapsed=0:01:51.48    \nframe=  204 fps=1.8 q=47.0 size=       1KiB time=00:00:03.38 bitrate=   1.3kbits/s speed=0.0302x elapsed=0:01:52.00    \nframe=  207 fps=1.8 q=46.0 size=       1KiB time=00:00:03.43 bitrate=   1.3kbits/s speed=0.0305x elapsed=0:01:52.55    \nframe=  207 fps=1.8 q=46.0 size=       1KiB time=00:00:03.43 bitrate=   1.3kbits/s speed=0.0303x elapsed=0:01:53.13    \nframe=  209 fps=1.8 q=28.0 size=       1KiB time=00:00:03.46 bitrate=   1.3kbits/s speed=0.0305x elapsed=0:01:53.66    \nframe=  211 fps=1.8 q=46.0 size=       1KiB time=00:00:03.48 bitrate=   1.3kbits/s speed=0.0305x elapsed=0:01:54.27    \nframe=  213 fps=1.9 q=43.0 size=       1KiB time=00:00:03.53 bitrate=   1.3kbits/s speed=0.0308x elapsed=0:01:54.89    \nframe=  214 fps=1.9 q=47.0 size=       1KiB time=00:00:03.55 bitrate=   1.3kbits/s speed=0.0307x elapsed=0:01:55.48    \nframe=  216 fps=1.9 q=47.0 size=       1KiB time=00:00:03.58 bitrate=   1.3kbits/s speed=0.0309x elapsed=0:01:56.04    \nframe=  217 fps=1.9 q=38.0 size=       1KiB time=00:00:03.60 bitrate=   1.2kbits/s speed=0.0309x elapsed=0:01:56.62    \nframe=  218 fps=1.9 q=47.0 size=       1KiB time=00:00:03.61 bitrate=   1.2kbits/s speed=0.0309x elapsed=0:01:57.13    \nframe=  220 fps=1.9 q=47.0 size=       1KiB time=00:00:03.65 bitrate=   1.2kbits/s speed=0.031x elapsed=0:01:57.65    \nframe=  222 fps=1.9 q=47.0 size=       1KiB time=00:00:03.68 bitrate=   1.2kbits/s speed=0.0312x elapsed=0:01:58.19    \nframe=  223 fps=1.9 q=46.0 size=       1KiB time=00:00:03.70 bitrate=   1.2kbits/s speed=0.0312x elapsed=0:01:58.70    \nframe=  225 fps=1.9 q=28.0 size=       1KiB time=00:00:03.73 bitrate=   1.2kbits/s speed=0.0313x elapsed=0:01:59.22    \nframe=  227 fps=1.9 q=47.0 size=       1KiB time=00:00:03.76 bitrate=   1.2kbits/s speed=0.0315x elapsed=0:01:59.74    \nframe=  230 fps=1.9 q=48.0 size=       1KiB time=00:00:03.81 bitrate=   1.2kbits/s speed=0.0317x elapsed=0:02:00.27    \nframe=  230 fps=1.9 q=48.0 size=       1KiB time=00:00:03.81 bitrate=   1.2kbits/s speed=0.0316x elapsed=0:02:00.87    \nframe=  232 fps=1.9 q=48.0 size=       1KiB time=00:00:03.85 bitrate=   1.2kbits/s speed=0.0317x elapsed=0:02:01.40    \nframe=  233 fps=1.9 q=38.0 size=       1KiB time=00:00:03.86 bitrate=   1.2kbits/s speed=0.0317x elapsed=0:02:01.97    \nframe=  235 fps=1.9 q=47.0 size=       1KiB time=00:00:03.90 bitrate=   1.1kbits/s speed=0.0318x elapsed=0:02:02.57    \nframe=  238 fps=1.9 q=48.0 size=       1KiB time=00:00:03.95 bitrate=   1.1kbits/s speed=0.0321x elapsed=0:02:03.13    \nframe=  238 fps=1.9 q=48.0 size=       1KiB time=00:00:03.95 bitrate=   1.1kbits/s speed=0.0319x elapsed=0:02:03.66    \nframe=  239 fps=1.9 q=47.0 size=       1KiB time=00:00:03.96 bitrate=   1.1kbits/s speed=0.0319x elapsed=0:02:04.22    \nframe=  240 fps=1.9 q=48.0 size=       1KiB time=00:00:03.98 bitrate=   1.1kbits/s speed=0.0319x elapsed=0:02:04.76    \nframe=  242 fps=1.9 q=48.0 size=       1KiB time=00:00:04.01 bitrate=   1.1kbits/s speed=0.0321x elapsed=0:02:05.31    \nframe=  243 fps=1.9 q=47.0 size=       1KiB time=00:00:04.03 bitrate=   1.1kbits/s speed=0.032x elapsed=0:02:05.93    \nframe=  244 fps=1.9 q=48.0 size=       1KiB time=00:00:04.05 bitrate=   1.1kbits/s speed=0.032x elapsed=0:02:06.45    \nframe=  246 fps=1.9 q=48.0 size=       1KiB time=00:00:04.08 bitrate=   1.1kbits/s speed=0.0322x elapsed=0:02:06.96    \nframe=  247 fps=1.9 q=47.0 size=       1KiB time=00:00:04.10 bitrate=   1.1kbits/s speed=0.0322x elapsed=0:02:07.48    \nframe=  248 fps=1.9 q=48.0 size=       1KiB time=00:00:04.11 bitrate=   1.1kbits/s speed=0.0322x elapsed=0:02:08.00    \nframe=  250 fps=1.9 q=48.0 size=       1KiB time=00:00:04.15 bitrate=   1.1kbits/s speed=0.0323x elapsed=0:02:08.51    \nframe=  251 fps=1.9 q=47.0 size=       1KiB time=00:00:04.16 bitrate=   1.1kbits/s speed=0.0323x elapsed=0:02:09.03    \nframe=  252 fps=1.9 q=48.0 size=       1KiB time=00:00:04.18 bitrate=   1.1kbits/s speed=0.0323x elapsed=0:02:09.54    \nframe=  253 fps=1.9 q=44.0 size=       1KiB time=00:00:04.20 bitrate=   1.1kbits/s speed=0.0323x elapsed=0:02:10.05    \nframe=  253 fps=1.9 q=44.0 size=       1KiB time=00:00:04.20 bitrate=   1.1kbits/s speed=0.0322x elapsed=0:02:10.57    \nframe=  253 fps=1.9 q=44.0 size=       1KiB time=00:00:04.20 bitrate=   1.1kbits/s speed=0.032x elapsed=0:02:11.09    \nframe=  254 fps=1.9 q=48.0 size=       1KiB time=00:00:04.21 bitrate=   1.1kbits/s speed=0.032x elapsed=0:02:11.61    \nframe=  254 fps=1.9 q=48.0 size=       1KiB time=00:00:04.21 bitrate=   1.1kbits/s speed=0.0319x elapsed=0:02:12.11    \nframe=  255 fps=1.9 q=47.0 size=       1KiB time=00:00:04.23 bitrate=   1.1kbits/s speed=0.0319x elapsed=0:02:12.63    \nframe=  256 fps=1.9 q=48.0 size=       1KiB time=00:00:04.25 bitrate=   1.1kbits/s speed=0.0319x elapsed=0:02:13.14    \nframe=  257 fps=1.9 q=29.0 size=       1KiB time=00:00:04.26 bitrate=   1.0kbits/s speed=0.0319x elapsed=0:02:13.66    \nframe=  259 fps=1.9 q=47.0 size=       1KiB time=00:00:04.30 bitrate=   1.0kbits/s speed=0.032x elapsed=0:02:14.18    \nframe=  260 fps=1.9 q=48.0 size=       1KiB time=00:00:04.31 bitrate=   1.0kbits/s speed=0.032x elapsed=0:02:14.70    \nframe=  260 fps=1.9 q=48.0 size=       1KiB time=00:00:04.31 bitrate=   1.0kbits/s speed=0.0319x elapsed=0:02:15.21    \nframe=  262 fps=1.9 q=48.0 size=       1KiB time=00:00:04.35 bitrate=   1.0kbits/s speed=0.032x elapsed=0:02:15.72    \nframe=  263 fps=1.9 q=47.0 size=       1KiB time=00:00:04.36 bitrate=   1.0kbits/s speed=0.032x elapsed=0:02:16.25    \nframe=  265 fps=1.9 q=39.0 size=       1KiB time=00:00:04.40 bitrate=   1.0kbits/s speed=0.0322x elapsed=0:02:16.77    \nframe=  266 fps=1.9 q=48.0 size=       1KiB time=00:00:04.41 bitrate=   1.0kbits/s speed=0.0322x elapsed=0:02:17.27    \nframe=  268 fps=1.9 q=48.0 size=       1KiB time=00:00:04.45 bitrate=   1.0kbits/s speed=0.0323x elapsed=0:02:17.80    \nframe=  269 fps=1.9 q=44.0 size=       1KiB time=00:00:04.46 bitrate=   1.0kbits/s speed=0.0323x elapsed=0:02:18.30    \nframe=  270 fps=1.9 q=48.0 size=       1KiB time=00:00:04.48 bitrate=   1.0kbits/s speed=0.0323x elapsed=0:02:18.82    \nframe=  270 fps=1.9 q=48.0 size=       1KiB time=00:00:04.48 bitrate=   1.0kbits/s speed=0.0322x elapsed=0:02:19.34    \nframe=  271 fps=1.9 q=47.0 size=       1KiB time=00:00:04.50 bitrate=   1.0kbits/s speed=0.0322x elapsed=0:02:19.86    \nframe=  272 fps=1.9 q=48.0 size=       1KiB time=00:00:04.51 bitrate=   1.0kbits/s speed=0.0322x elapsed=0:02:20.37    \nframe=  274 fps=1.9 q=48.0 size=       1KiB time=00:00:04.55 bitrate=   1.0kbits/s speed=0.0323x elapsed=0:02:20.88    \nframe=  275 fps=1.9 q=47.0 size=       1KiB time=00:00:04.56 bitrate=   1.0kbits/s speed=0.0323x elapsed=0:02:21.40    \nframe=  277 fps=2.0 q=44.0 size=       1KiB time=00:00:04.60 bitrate=   1.0kbits/s speed=0.0324x elapsed=0:02:21.92    \nframe=  278 fps=2.0 q=48.0 size=       1KiB time=00:00:04.61 bitrate=   1.0kbits/s speed=0.0324x elapsed=0:02:22.43    \nframe=  278 fps=1.9 q=48.0 size=       1KiB time=00:00:04.61 bitrate=   1.0kbits/s speed=0.0323x elapsed=0:02:22.94    \nframe=  280 fps=2.0 q=48.0 size=       1KiB time=00:00:04.65 bitrate=   1.0kbits/s speed=0.0324x elapsed=0:02:23.45    \nframe=  281 fps=2.0 q=39.0 size=       1KiB time=00:00:04.66 bitrate=   1.0kbits/s speed=0.0324x elapsed=0:02:23.97    \nframe=  282 fps=2.0 q=48.0 size=       1KiB time=00:00:04.68 bitrate=   1.0kbits/s speed=0.0324x elapsed=0:02:24.49    \nframe=  282 fps=1.9 q=48.0 size=       1KiB time=00:00:04.68 bitrate=   1.0kbits/s speed=0.0323x elapsed=0:02:25.01    \nframe=  283 fps=1.9 q=47.0 size=       1KiB time=00:00:04.70 bitrate=   1.0kbits/s speed=0.0323x elapsed=0:02:25.52    \nframe=  285 fps=2.0 q=44.0 size=       1KiB time=00:00:04.73 bitrate=   0.9kbits/s speed=0.0324x elapsed=0:02:26.04    \nframe=  285 fps=1.9 q=44.0 size=       1KiB time=00:00:04.73 bitrate=   0.9kbits/s speed=0.0323x elapsed=0:02:26.55    \nframe=  285 fps=1.9 q=44.0 size=       1KiB time=00:00:04.73 bitrate=   0.9kbits/s speed=0.0322x elapsed=0:02:27.07    \nframe=  286 fps=1.9 q=48.0 size=       1KiB time=00:00:04.75 bitrate=   0.9kbits/s speed=0.0322x elapsed=0:02:27.59    \nframe=  286 fps=1.9 q=48.0 size=       1KiB time=00:00:04.75 bitrate=   0.9kbits/s speed=0.0321x elapsed=0:02:28.10    \nframe=  287 fps=1.9 q=47.0 size=       1KiB time=00:00:04.76 bitrate=   0.9kbits/s speed=0.0321x elapsed=0:02:28.62    \nframe=  288 fps=1.9 q=49.0 size=       1KiB time=00:00:04.78 bitrate=   0.9kbits/s speed=0.0321x elapsed=0:02:29.13    \nframe=  290 fps=1.9 q=49.0 size=       1KiB time=00:00:04.81 bitrate=   0.9kbits/s speed=0.0322x elapsed=0:02:29.64    \nframe=  291 fps=1.9 q=48.0 size=       1KiB time=00:00:04.83 bitrate=   0.9kbits/s speed=0.0322x elapsed=0:02:30.17    \nframe=  293 fps=1.9 q=46.0 size=       1KiB time=00:00:04.86 bitrate=   0.9kbits/s speed=0.0323x elapsed=0:02:30.68    \nframe=  294 fps=1.9 q=49.0 size=       1KiB time=00:00:04.88 bitrate=   0.9kbits/s speed=0.0323x elapsed=0:02:31.20    \nframe=  295 fps=1.9 q=48.0 size=       1KiB time=00:00:04.90 bitrate=   0.9kbits/s speed=0.0323x elapsed=0:02:31.71    \nframe=  296 fps=1.9 q=49.0 size=       1KiB time=00:00:04.91 bitrate=   0.9kbits/s speed=0.0323x elapsed=0:02:32.22    \nframe=  298 fps=2.0 q=49.0 size=       1KiB time=00:00:04.95 bitrate=   0.9kbits/s speed=0.0324x elapsed=0:02:32.74    \nframe=  298 fps=1.9 q=49.0 size=       1KiB time=00:00:04.95 bitrate=   0.9kbits/s speed=0.0323x elapsed=0:02:33.25    \nframe=  301 fps=2.0 q=45.0 size=       1KiB time=00:00:05.00 bitrate=   0.9kbits/s speed=0.0325x elapsed=0:02:33.78    \nframe=  302 fps=2.0 q=49.0 size=       1KiB time=00:00:05.01 bitrate=   0.9kbits/s speed=0.0325x elapsed=0:02:34.29    \nframe=  303 fps=2.0 q=48.0 size=    1024KiB time=00:00:05.03 bitrate=1666.6kbits/s speed=0.0325x elapsed=0:02:34.87    \nframe=  305 fps=2.0 q=29.0 size=    1024KiB time=00:00:05.06 bitrate=1655.6kbits/s speed=0.0326x elapsed=0:02:35.49    \nframe=  307 fps=2.0 q=49.0 size=    1024KiB time=00:00:05.10 bitrate=1644.8kbits/s speed=0.0327x elapsed=0:02:36.04    \nframe=  309 fps=2.0 q=47.0 size=    1024KiB time=00:00:05.13 bitrate=1634.1kbits/s speed=0.0328x elapsed=0:02:36.59    \nframe=  310 fps=2.0 q=50.0 size=    1024KiB time=00:00:05.15 bitrate=1628.9kbits/s speed=0.0328x elapsed=0:02:37.11    \nframe=  312 fps=2.0 q=50.0 size=    1024KiB time=00:00:05.18 bitrate=1618.4kbits/s speed=0.0329x elapsed=0:02:37.63    \nframe=  315 fps=2.0 q=49.0 size=    1024KiB time=00:00:05.23 bitrate=1602.9kbits/s speed=0.0331x elapsed=0:02:38.15    \nframe=  315 fps=2.0 q=49.0 size=    1024KiB time=00:00:05.23 bitrate=1602.9kbits/s speed=0.033x elapsed=0:02:38.66    \nframe=  315 fps=2.0 q=49.0 size=    1024KiB time=00:00:05.23 bitrate=1602.9kbits/s speed=0.0329x elapsed=0:02:39.17    \nframe=  317 fps=2.0 q=47.0 size=    1024KiB time=00:00:05.26 bitrate=1592.8kbits/s speed=0.033x elapsed=0:02:39.69    \nframe=  318 fps=2.0 q=44.0 size=    1024KiB time=00:00:05.28 bitrate=1587.7kbits/s speed=0.033x elapsed=0:02:40.21    \nframe=  318 fps=2.0 q=44.0 size=    1024KiB time=00:00:05.28 bitrate=1587.7kbits/s speed=0.0329x elapsed=0:02:40.73    \nframe=  318 fps=2.0 q=44.0 size=    1024KiB time=00:00:05.28 bitrate=1587.7kbits/s speed=0.0328x elapsed=0:02:41.25    \nframe=  318 fps=2.0 q=44.0 size=    1024KiB time=00:00:05.28 bitrate=1587.7kbits/s speed=0.0327x elapsed=0:02:41.76    \nframe=  319 fps=2.0 q=38.0 size=    1024KiB time=00:00:05.30 bitrate=1582.8kbits/s speed=0.0327x elapsed=0:02:42.27    \nframe=  320 fps=2.0 q=44.0 size=    1024KiB time=00:00:05.31 bitrate=1577.8kbits/s speed=0.0327x elapsed=0:02:42.79    \nframe=  321 fps=2.0 q=38.0 size=    1024KiB time=00:00:05.33 bitrate=1572.9kbits/s speed=0.0327x elapsed=0:02:43.30    \nframe=  324 fps=2.0 q=49.0 size=    1024KiB time=00:00:05.38 bitrate=1558.3kbits/s speed=0.0329x elapsed=0:02:43.82    \nframe=  325 fps=2.0 q=51.0 size=    1024KiB time=00:00:05.40 bitrate=1553.4kbits/s speed=0.0329x elapsed=0:02:44.33    \nframe=  327 fps=2.0 q=51.0 size=    1024KiB time=00:00:05.43 bitrate=1543.9kbits/s speed=0.033x elapsed=0:02:44.86    \nframe=  327 fps=2.0 q=51.0 size=    1024KiB time=00:00:05.43 bitrate=1543.9kbits/s speed=0.0329x elapsed=0:02:45.36    \nframe=  328 fps=2.0 q=49.0 size=    1024KiB time=00:00:05.45 bitrate=1539.2kbits/s speed=0.0329x elapsed=0:02:45.89    \nframe=  331 fps=2.0 q=51.0 size=    1024KiB time=00:00:05.50 bitrate=1525.2kbits/s speed=0.0331x elapsed=0:02:46.39    \nframe=  332 fps=2.0 q=50.0 size=    1024KiB time=00:00:05.51 bitrate=1520.6kbits/s speed=0.0331x elapsed=0:02:46.91    \nframe=  334 fps=2.0 q=47.0 size=    1024KiB time=00:00:05.55 bitrate=1511.5kbits/s speed=0.0331x elapsed=0:02:47.42    \nframe=  334 fps=2.0 q=47.0 size=    1024KiB time=00:00:05.55 bitrate=1511.5kbits/s speed=0.033x elapsed=0:02:47.95    \nframe=  334 fps=2.0 q=47.0 size=    1024KiB time=00:00:05.55 bitrate=1511.5kbits/s speed=0.0329x elapsed=0:02:48.46    \nframe=  334 fps=2.0 q=47.0 size=    1024KiB time=00:00:05.55 bitrate=1511.5kbits/s speed=0.0328x elapsed=0:02:48.98    \nframe=  335 fps=2.0 q=51.0 size=    1024KiB time=00:00:05.56 bitrate=1506.9kbits/s speed=0.0328x elapsed=0:02:49.49    \nframe=  335 fps=2.0 q=51.0 size=    1024KiB time=00:00:05.56 bitrate=1506.9kbits/s speed=0.0327x elapsed=0:02:50.01    \nframe=  336 fps=2.0 q=50.0 size=    1024KiB time=00:00:05.58 bitrate=1502.4kbits/s speed=0.0327x elapsed=0:02:50.52    \nframe=  337 fps=2.0 q=51.0 size=    1024KiB time=00:00:05.60 bitrate=1498.0kbits/s speed=0.0327x elapsed=0:02:51.04    \nframe=  340 fps=2.0 q=51.0 size=    1024KiB time=00:00:05.65 bitrate=1484.7kbits/s speed=0.0329x elapsed=0:02:51.55    \nframe=  343 fps=2.0 q=52.0 size=    1024KiB time=00:00:05.70 bitrate=1471.7kbits/s speed=0.0331x elapsed=0:02:52.08    \nframe=  344 fps=2.0 q=51.0 size=    1024KiB time=00:00:05.71 bitrate=1467.4kbits/s speed=0.0331x elapsed=0:02:52.59    \nframe=  345 fps=2.0 q=52.0 size=    1024KiB time=00:00:05.73 bitrate=1463.1kbits/s speed=0.0331x elapsed=0:02:53.12    \nframe=  347 fps=2.0 q=52.0 size=    1024KiB time=00:00:05.76 bitrate=1454.7kbits/s speed=0.0332x elapsed=0:02:53.63    \nframe=  348 fps=2.0 q=51.0 size=    1024KiB time=00:00:05.78 bitrate=1450.5kbits/s speed=0.0332x elapsed=0:02:54.15    \nframe=  350 fps=2.0 q=48.0 size=    1024KiB time=00:00:05.81 bitrate=1442.2kbits/s speed=0.0333x elapsed=0:02:54.67    \nframe=  350 fps=2.0 q=48.0 size=    1024KiB time=00:00:05.81 bitrate=1442.2kbits/s speed=0.0332x elapsed=0:02:55.18    \nframe=  350 fps=2.0 q=48.0 size=    1024KiB time=00:00:05.81 bitrate=1442.2kbits/s speed=0.0331x elapsed=0:02:55.70    \nframe=  351 fps=2.0 q=52.0 size=    1024KiB time=00:00:05.83 bitrate=1438.0kbits/s speed=0.0331x elapsed=0:02:56.21    \nframe=  352 fps=2.0 q=51.0 size=    1024KiB time=00:00:05.85 bitrate=1434.0kbits/s speed=0.0331x elapsed=0:02:56.73    \nframe=  354 fps=2.0 q=32.0 size=    1024KiB time=00:00:05.88 bitrate=1425.8kbits/s speed=0.0332x elapsed=0:02:57.25    \nframe=  356 fps=2.0 q=51.0 size=    1024KiB time=00:00:05.91 bitrate=1417.8kbits/s speed=0.0333x elapsed=0:02:57.77    \nframe=  358 fps=2.0 q=49.0 size=    1024KiB time=00:00:05.95 bitrate=1409.9kbits/s speed=0.0334x elapsed=0:02:58.28    \nframe=  359 fps=2.0 q=52.0 size=    1024KiB time=00:00:05.96 bitrate=1405.9kbits/s speed=0.0334x elapsed=0:02:58.81    \nframe=  360 fps=2.0 q=51.0 size=    1024KiB time=00:00:05.98 bitrate=1402.0kbits/s speed=0.0334x elapsed=0:02:59.32    \nframe=  362 fps=2.0 q=44.0 size=    1024KiB time=00:00:06.01 bitrate=1394.2kbits/s speed=0.0335x elapsed=0:02:59.83    \nframe=  363 fps=2.0 q=52.0 size=    1024KiB time=00:00:06.03 bitrate=1390.4kbits/s speed=0.0335x elapsed=0:03:00.35    \nframe=  365 fps=2.0 q=52.0 size=    1024KiB time=00:00:06.06 bitrate=1382.7kbits/s speed=0.0335x elapsed=0:03:00.87    \nframe=  366 fps=2.0 q=49.0 size=    1024KiB time=00:00:06.08 bitrate=1378.9kbits/s speed=0.0335x elapsed=0:03:01.39    \nframe=  367 fps=2.0 q=52.0 size=    1024KiB time=00:00:06.10 bitrate=1375.2kbits/s speed=0.0335x elapsed=0:03:01.90    \nframe=  368 fps=2.0 q=51.0 size=    1024KiB time=00:00:06.11 bitrate=1371.4kbits/s speed=0.0335x elapsed=0:03:02.42    \nframe=  369 fps=2.0 q=52.0 size=    1024KiB time=00:00:06.13 bitrate=1367.7kbits/s speed=0.0335x elapsed=0:03:02.93    \nframe=  370 fps=2.0 q=34.0 size=    1024KiB time=00:00:06.15 bitrate=1364.0kbits/s speed=0.0335x elapsed=0:03:03.45    \nframe=  372 fps=2.0 q=51.0 size=    1024KiB time=00:00:06.18 bitrate=1356.6kbits/s speed=0.0336x elapsed=0:03:03.97    \nframe=  373 fps=2.0 q=52.0 size=    1024KiB time=00:00:06.20 bitrate=1353.0kbits/s speed=0.0336x elapsed=0:03:04.48    \nframe=  375 fps=2.0 q=52.0 size=    1024KiB time=00:00:06.23 bitrate=1345.8kbits/s speed=0.0337x elapsed=0:03:04.99    \nframe=  376 fps=2.0 q=51.0 size=    1024KiB time=00:00:06.25 bitrate=1342.2kbits/s speed=0.0337x elapsed=0:03:05.50    \nframe=  377 fps=2.0 q=52.0 size=    1024KiB time=00:00:06.26 bitrate=1338.6kbits/s speed=0.0337x elapsed=0:03:06.02    \nframe=  379 fps=2.0 q=52.0 size=    1024KiB time=00:00:06.30 bitrate=1331.5kbits/s speed=0.0338x elapsed=0:03:06.55    \nframe=  381 fps=2.0 q=52.0 size=    1024KiB time=00:00:06.33 bitrate=1324.5kbits/s speed=0.0339x elapsed=0:03:07.05    \nframe=  382 fps=2.0 q=49.0 size=    1024KiB time=00:00:06.35 bitrate=1321.0kbits/s speed=0.0339x elapsed=0:03:07.56    \nframe=  383 fps=2.0 q=52.0 size=    1024KiB time=00:00:06.36 bitrate=1317.6kbits/s speed=0.0338x elapsed=0:03:08.08    \nframe=  385 fps=2.0 q=52.0 size=    1024KiB time=00:00:06.40 bitrate=1310.7kbits/s speed=0.0339x elapsed=0:03:08.59    \nframe=  387 fps=2.0 q=51.0 size=    1024KiB time=00:00:06.43 bitrate=1303.9kbits/s speed=0.034x elapsed=0:03:09.12    \nframe=  389 fps=2.1 q=51.0 size=    1024KiB time=00:00:06.46 bitrate=1297.2kbits/s speed=0.0341x elapsed=0:03:09.63    \nframe=  391 fps=2.1 q=51.0 size=    1024KiB time=00:00:06.50 bitrate=1290.6kbits/s speed=0.0342x elapsed=0:03:10.29    \nframe=  392 fps=2.1 q=50.0 size=    1024KiB time=00:00:06.51 bitrate=1287.3kbits/s speed=0.0341x elapsed=0:03:10.84    \nframe=  394 fps=2.1 q=44.0 size=    1024KiB time=00:00:06.55 bitrate=1280.7kbits/s speed=0.0342x elapsed=0:03:11.43    \nframe=  396 fps=2.1 q=50.0 size=    1024KiB time=00:00:06.56 bitrate=1277.5kbits/s speed=0.0342x elapsed=0:03:12.04    \nframe=  398 fps=2.1 q=48.0 size=    1024KiB time=00:00:06.61 bitrate=1267.8kbits/s speed=0.0343x elapsed=0:03:12.67    \nframe=  399 fps=2.1 q=51.0 size=    1024KiB time=00:00:06.63 bitrate=1264.6kbits/s speed=0.0343x elapsed=0:03:13.22    \nframe=  400 fps=2.1 q=50.0 size=    1024KiB time=00:00:06.65 bitrate=1261.4kbits/s speed=0.0343x elapsed=0:03:13.78    \nframe=  401 fps=2.1 q=51.0 size=    1024KiB time=00:00:06.66 bitrate=1258.3kbits/s speed=0.0343x elapsed=0:03:14.29    \nframe=  403 fps=2.1 q=51.0 size=    1024KiB time=00:00:06.70 bitrate=1252.0kbits/s speed=0.0344x elapsed=0:03:14.81    \nframe=  404 fps=2.1 q=50.0 size=    1024KiB time=00:00:06.71 bitrate=1248.9kbits/s speed=0.0344x elapsed=0:03:15.32    \nframe=  407 fps=2.1 q=51.0 size=    1024KiB time=00:00:06.76 bitrate=1239.7kbits/s speed=0.0346x elapsed=0:03:15.84    \nframe=  408 fps=2.1 q=50.0 size=    1024KiB time=00:00:06.78 bitrate=1236.6kbits/s speed=0.0345x elapsed=0:03:16.36    \nframe=  409 fps=2.1 q=51.0 size=    1024KiB time=00:00:06.80 bitrate=1233.6kbits/s speed=0.0345x elapsed=0:03:16.87    \nframe=  410 fps=2.1 q=43.0 size=    1024KiB time=00:00:06.81 bitrate=1230.6kbits/s speed=0.0345x elapsed=0:03:17.39    \nframe=  411 fps=2.1 q=51.0 size=    1024KiB time=00:00:06.83 bitrate=1227.6kbits/s speed=0.0345x elapsed=0:03:17.91    \nframe=  413 fps=2.1 q=51.0 size=    1024KiB time=00:00:06.86 bitrate=1221.6kbits/s speed=0.0346x elapsed=0:03:18.43    \nframe=  415 fps=2.1 q=48.0 size=    1024KiB time=00:00:06.90 bitrate=1215.7kbits/s speed=0.0347x elapsed=0:03:18.95    \nframe=  417 fps=2.1 q=48.0 size=    1024KiB time=00:00:06.93 bitrate=1209.9kbits/s speed=0.0348x elapsed=0:03:19.46    \nframe=  419 fps=2.1 q=51.0 size=    1024KiB time=00:00:06.96 bitrate=1204.1kbits/s speed=0.0348x elapsed=0:03:19.98    \nframe=  420 fps=2.1 q=50.0 size=    1024KiB time=00:00:06.98 bitrate=1201.2kbits/s speed=0.0348x elapsed=0:03:20.49    \nframe=  422 fps=2.1 q=48.0 size=    1024KiB time=00:00:07.01 bitrate=1195.5kbits/s speed=0.0349x elapsed=0:03:21.00    \nframe=  423 fps=2.1 q=51.0 size=    1024KiB time=00:00:07.03 bitrate=1192.7kbits/s speed=0.0349x elapsed=0:03:21.53    \nframe=  424 fps=2.1 q=50.0 size=    1024KiB time=00:00:07.05 bitrate=1189.9kbits/s speed=0.0349x elapsed=0:03:22.06    \nframe=  427 fps=2.1 q=51.0 size=    1024KiB time=00:00:07.10 bitrate=1181.5kbits/s speed=0.035x elapsed=0:03:22.57    \nframe=  428 fps=2.1 q=50.0 size=    1024KiB time=00:00:07.11 bitrate=1178.7kbits/s speed=0.035x elapsed=0:03:23.09    \nframe=  430 fps=2.1 q=48.0 size=    1024KiB time=00:00:07.15 bitrate=1173.2kbits/s speed=0.0351x elapsed=0:03:23.76    \nframe=  430 fps=2.1 q=48.0 size=    1024KiB time=00:00:07.15 bitrate=1173.2kbits/s speed=0.035x elapsed=0:03:24.27    \nframe=  431 fps=2.1 q=51.0 size=    1024KiB time=00:00:07.16 bitrate=1170.5kbits/s speed=0.035x elapsed=0:03:24.79    \nframe=  432 fps=2.1 q=50.0 size=    1024KiB time=00:00:07.18 bitrate=1167.8kbits/s speed=0.035x elapsed=0:03:25.30    \nframe=  433 fps=2.1 q=51.0 size=    1024KiB time=00:00:07.20 bitrate=1165.1kbits/s speed=0.035x elapsed=0:03:25.82    \nframe=  434 fps=2.1 q=34.0 size=    1024KiB time=00:00:07.21 bitrate=1162.4kbits/s speed=0.035x elapsed=0:03:26.34    \nframe=  436 fps=2.1 q=49.0 size=    1024KiB time=00:00:07.25 bitrate=1157.0kbits/s speed=0.035x elapsed=0:03:26.85    \nframe=  436 fps=2.1 q=49.0 size=    1024KiB time=00:00:07.25 bitrate=1157.0kbits/s speed=0.035x elapsed=0:03:27.38    \nframe=  439 fps=2.1 q=50.0 size=    1024KiB time=00:00:07.30 bitrate=1149.1kbits/s speed=0.0351x elapsed=0:03:27.89    \nframe=  439 fps=2.1 q=50.0 size=    1024KiB time=00:00:07.30 bitrate=1149.1kbits/s speed=0.035x elapsed=0:03:28.42    \nframe=  441 fps=2.1 q=50.0 size=    1024KiB time=00:00:07.33 bitrate=1143.9kbits/s speed=0.0351x elapsed=0:03:28.93    \nframe=  443 fps=2.1 q=50.0 size=    1024KiB time=00:00:07.36 bitrate=1138.7kbits/s speed=0.0352x elapsed=0:03:29.44    \nframe=  446 fps=2.1 q=47.0 size=    1024KiB time=00:00:07.41 bitrate=1131.0kbits/s speed=0.0353x elapsed=0:03:29.97    \nframe=  446 fps=2.1 q=47.0 size=    1024KiB time=00:00:07.41 bitrate=1131.0kbits/s speed=0.0352x elapsed=0:03:30.47    \nframe=  446 fps=2.1 q=47.0 size=    1024KiB time=00:00:07.41 bitrate=1131.0kbits/s speed=0.0352x elapsed=0:03:30.99    \nframe=  446 fps=2.1 q=47.0 size=    1024KiB time=00:00:07.41 bitrate=1131.0kbits/s speed=0.0351x elapsed=0:03:31.51    \nframe=  447 fps=2.1 q=50.0 size=    1024KiB time=00:00:07.43 bitrate=1128.5kbits/s speed=0.0351x elapsed=0:03:32.03    \nframe=  448 fps=2.1 q=49.0 size=    1024KiB time=00:00:07.45 bitrate=1126.0kbits/s speed=0.0351x elapsed=0:03:32.54    \nframe=  449 fps=2.1 q=50.0 size=    1024KiB time=00:00:07.46 bitrate=1123.5kbits/s speed=0.035x elapsed=0:03:33.06    \nframe=  452 fps=2.1 q=49.0 size=    1024KiB time=00:00:07.51 bitrate=1116.0kbits/s speed=0.0352x elapsed=0:03:33.58    \nframe=  454 fps=2.1 q=47.0 size=    1024KiB time=00:00:07.55 bitrate=1111.1kbits/s speed=0.0353x elapsed=0:03:34.10    \nframe=  455 fps=2.1 q=50.0 size=    1024KiB time=00:00:07.56 bitrate=1108.6kbits/s speed=0.0353x elapsed=0:03:34.61    \nframe=  456 fps=2.1 q=49.0 size=    1024KiB time=00:00:07.58 bitrate=1106.2kbits/s speed=0.0352x elapsed=0:03:35.14    \nframe=  457 fps=2.1 q=50.0 size=    1024KiB time=00:00:07.60 bitrate=1103.8kbits/s speed=0.0352x elapsed=0:03:35.64    \nframe=  460 fps=2.1 q=49.0 size=    1024KiB time=00:00:07.65 bitrate=1096.6kbits/s speed=0.0354x elapsed=0:03:36.17    \nframe=  462 fps=2.1 q=47.0 size=    1024KiB time=00:00:07.68 bitrate=1091.8kbits/s speed=0.0355x elapsed=0:03:36.68    \nframe=  462 fps=2.1 q=47.0 size=    1024KiB time=00:00:07.68 bitrate=1091.8kbits/s speed=0.0354x elapsed=0:03:37.19    \nframe=  462 fps=2.1 q=47.0 size=    1024KiB time=00:00:07.68 bitrate=1091.8kbits/s speed=0.0353x elapsed=0:03:37.71    \nframe=  463 fps=2.1 q=50.0 size=    1024KiB time=00:00:07.70 bitrate=1089.4kbits/s speed=0.0353x elapsed=0:03:38.22    \nframe=  463 fps=2.1 q=50.0 size=    1024KiB time=00:00:07.70 bitrate=1089.4kbits/s speed=0.0352x elapsed=0:03:38.74    \nframe=  464 fps=2.1 q=49.0 size=    1024KiB time=00:00:07.71 bitrate=1087.1kbits/s speed=0.0352x elapsed=0:03:39.25    \nframe=  465 fps=2.1 q=50.0 size=    1024KiB time=00:00:07.73 bitrate=1084.7kbits/s speed=0.0352x elapsed=0:03:39.78    \nframe=  466 fps=2.1 q=32.0 size=    1024KiB time=00:00:07.75 bitrate=1082.4kbits/s speed=0.0352x elapsed=0:03:40.29    \nframe=  468 fps=2.1 q=49.0 size=    1024KiB time=00:00:07.78 bitrate=1077.8kbits/s speed=0.0352x elapsed=0:03:40.81    \nframe=  469 fps=2.1 q=50.0 size=    1024KiB time=00:00:07.80 bitrate=1075.5kbits/s speed=0.0352x elapsed=0:03:41.33    \nframe=  471 fps=2.1 q=50.0 size=    1024KiB time=00:00:07.83 bitrate=1070.9kbits/s speed=0.0353x elapsed=0:03:41.84    \nframe=  471 fps=2.1 q=50.0 size=    1024KiB time=00:00:07.83 bitrate=1070.9kbits/s speed=0.0352x elapsed=0:03:42.37    \nframe=  472 fps=2.1 q=49.0 size=    1024KiB time=00:00:07.85 bitrate=1068.6kbits/s speed=0.0352x elapsed=0:03:42.88    \nframe=  474 fps=2.1 q=41.0 size=    1024KiB time=00:00:07.88 bitrate=1064.1kbits/s speed=0.0353x elapsed=0:03:43.40    \nframe=  475 fps=2.1 q=50.0 size=    1024KiB time=00:00:07.90 bitrate=1061.8kbits/s speed=0.0353x elapsed=0:03:43.91    \nframe=  477 fps=2.1 q=50.0 size=    1024KiB time=00:00:07.93 bitrate=1057.4kbits/s speed=0.0353x elapsed=0:03:44.45    \nframe=  478 fps=2.1 q=46.0 size=    1024KiB time=00:00:07.95 bitrate=1055.2kbits/s speed=0.0353x elapsed=0:03:44.99    \nframe=  479 fps=2.1 q=50.0 size=    1024KiB time=00:00:07.96 bitrate=1053.0kbits/s speed=0.0353x elapsed=0:03:45.55    \nframe=  479 fps=2.1 q=50.0 size=    1024KiB time=00:00:07.96 bitrate=1053.0kbits/s speed=0.0352x elapsed=0:03:46.07    \nframe=  479 fps=2.1 q=50.0 size=    1024KiB time=00:00:07.96 bitrate=1053.0kbits/s speed=0.0352x elapsed=0:03:46.64    \nframe=  480 fps=2.1 q=49.0 size=    1024KiB time=00:00:07.98 bitrate=1050.8kbits/s speed=0.0351x elapsed=0:03:47.17    \nframe=  481 fps=2.1 q=50.0 size=    1024KiB time=00:00:08.00 bitrate=1048.6kbits/s speed=0.0351x elapsed=0:03:47.69    \nframe=  483 fps=2.1 q=50.0 size=    1024KiB time=00:00:08.01 bitrate=1046.4kbits/s speed=0.0351x elapsed=0:03:48.31    \nframe=  485 fps=2.1 q=50.0 size=    1024KiB time=00:00:08.06 bitrate=1039.9kbits/s speed=0.0353x elapsed=0:03:48.83    \nframe=  487 fps=2.1 q=50.0 size=    1024KiB time=00:00:08.10 bitrate=1035.6kbits/s speed=0.0353x elapsed=0:03:49.43    \nframe=  489 fps=2.1 q=50.0 size=    1024KiB time=00:00:08.13 bitrate=1031.4kbits/s speed=0.0353x elapsed=0:03:50.09    \nframe=  491 fps=2.1 q=50.0 size=    1024KiB time=00:00:08.16 bitrate=1027.2kbits/s speed=0.0354x elapsed=0:03:50.60    \nframe=  493 fps=2.1 q=50.0 size=    1024KiB time=00:00:08.20 bitrate=1023.0kbits/s speed=0.0355x elapsed=0:03:51.12    \nframe=  494 fps=2.1 q=47.0 size=    1024KiB time=00:00:08.21 bitrate=1020.9kbits/s speed=0.0355x elapsed=0:03:51.63    \nframe=  494 fps=2.1 q=47.0 size=    1024KiB time=00:00:08.21 bitrate=1020.9kbits/s speed=0.0354x elapsed=0:03:52.15    \nframe=  494 fps=2.1 q=47.0 size=    1024KiB time=00:00:08.21 bitrate=1020.9kbits/s speed=0.0353x elapsed=0:03:52.67    \nframe=  494 fps=2.1 q=47.0 size=    1024KiB time=00:00:08.21 bitrate=1020.9kbits/s speed=0.0352x elapsed=0:03:53.18    \nframe=  494 fps=2.1 q=47.0 size=    1024KiB time=00:00:08.21 bitrate=1020.9kbits/s speed=0.0352x elapsed=0:03:53.69    \nframe=  494 fps=2.1 q=47.0 size=    1024KiB time=00:00:08.21 bitrate=1020.9kbits/s speed=0.0351x elapsed=0:03:54.21    \nframe=  494 fps=2.1 q=47.0 size=    1024KiB time=00:00:08.21 bitrate=1020.9kbits/s speed=0.035x elapsed=0:03:54.73    \nframe=  495 fps=2.1 q=50.0 size=    1024KiB time=00:00:08.23 bitrate=1018.9kbits/s speed=0.035x elapsed=0:03:55.24    \nframe=  495 fps=2.1 q=50.0 size=    1024KiB time=00:00:08.23 bitrate=1018.9kbits/s speed=0.0349x elapsed=0:03:55.77    \nframe=  496 fps=2.1 q=49.0 size=    1024KiB time=00:00:08.25 bitrate=1016.8kbits/s speed=0.0349x elapsed=0:03:56.27    \nframe=  498 fps=2.1 q=32.0 size=    1024KiB time=00:00:08.28 bitrate=1012.7kbits/s speed=0.035x elapsed=0:03:56.79    \nframe=  500 fps=2.1 q=49.0 size=    1024KiB time=00:00:08.31 bitrate=1008.7kbits/s speed=0.035x elapsed=0:03:57.31    \nframe=  502 fps=2.1 q=46.0 size=    1024KiB time=00:00:08.35 bitrate=1004.6kbits/s speed=0.0351x elapsed=0:03:57.82    \nframe=  503 fps=2.1 q=50.0 size=    1024KiB time=00:00:08.36 bitrate=1002.6kbits/s speed=0.0351x elapsed=0:03:58.34    \nframe=  506 fps=2.1 q=41.0 size=    1024KiB time=00:00:08.41 bitrate= 996.7kbits/s speed=0.0352x elapsed=0:03:58.86    \nframe=  510 fps=2.1 q=46.0 size=    1024KiB time=00:00:08.48 bitrate= 988.8kbits/s speed=0.0354x elapsed=0:03:59.37    \nframe=  514 fps=2.1 q=31.0 size=    1024KiB time=00:00:08.55 bitrate= 981.1kbits/s speed=0.0356x elapsed=0:03:59.89    \nframe=  514 fps=2.1 q=31.0 size=    1024KiB time=00:00:08.55 bitrate= 981.1kbits/s speed=0.0356x elapsed=0:04:00.40    \nframe=  514 fps=2.1 q=31.0 size=    1024KiB time=00:00:08.55 bitrate= 981.1kbits/s speed=0.0355x elapsed=0:04:00.92    \nframe=  514 fps=2.1 q=31.0 size=    1024KiB time=00:00:08.55 bitrate= 981.1kbits/s speed=0.0354x elapsed=0:04:01.43    \nframe=  514 fps=2.1 q=31.0 size=    1024KiB time=00:00:08.55 bitrate= 981.1kbits/s speed=0.0353x elapsed=0:04:01.94    \nframe=  514 fps=2.1 q=31.0 size=    1024KiB time=00:00:08.55 bitrate= 981.1kbits/s speed=0.0353x elapsed=0:04:02.46    \nframe=  514 fps=2.1 q=31.0 size=    1024KiB time=00:00:08.55 bitrate= 981.1kbits/s speed=0.0352x elapsed=0:04:02.98    \nframe=  514 fps=2.1 q=31.0 size=    1024KiB time=00:00:08.55 bitrate= 981.1kbits/s speed=0.0351x elapsed=0:04:03.50    \nframe=  514 fps=2.1 q=31.0 size=    1024KiB time=00:00:08.55 bitrate= 981.1kbits/s speed=0.035x elapsed=0:04:04.00    \nframe=  514 fps=2.1 q=31.0 size=    1024KiB time=00:00:08.55 bitrate= 981.1kbits/s speed=0.035x elapsed=0:04:04.52    \nframe=  514 fps=2.1 q=31.0 size=    1024KiB time=00:00:08.55 bitrate= 981.1kbits/s speed=0.0349x elapsed=0:04:05.04    \nframe=  514 fps=2.1 q=31.0 size=    1024KiB time=00:00:08.55 bitrate= 981.1kbits/s speed=0.0348x elapsed=0:04:05.55    \nframe=  516 fps=2.1 q=49.0 size=    1024KiB time=00:00:08.58 bitrate= 977.3kbits/s speed=0.0349x elapsed=0:04:06.07    \nframe=  518 fps=2.1 q=46.0 size=    1024KiB time=00:00:08.61 bitrate= 973.5kbits/s speed=0.0349x elapsed=0:04:06.59    \nframe=  522 fps=2.1 q=41.0 size=    1024KiB time=00:00:08.68 bitrate= 966.1kbits/s speed=0.0351x elapsed=0:04:07.10    \nframe=  522 fps=2.1 q=41.0 size=    1024KiB time=00:00:08.68 bitrate= 966.1kbits/s speed=0.0351x elapsed=0:04:07.61    \nframe=  524 fps=2.1 q=49.0 size=    1024KiB time=00:00:08.71 bitrate= 962.4kbits/s speed=0.0351x elapsed=0:04:08.13    \nframe=  526 fps=2.1 q=46.0 size=    1024KiB time=00:00:08.75 bitrate= 958.7kbits/s speed=0.0352x elapsed=0:04:08.65    \nframe=  530 fps=2.1 q=30.0 size=    1024KiB time=00:00:08.81 bitrate= 951.4kbits/s speed=0.0354x elapsed=0:04:09.16    \nframe=  530 fps=2.1 q=30.0 size=    1024KiB time=00:00:08.81 bitrate= 951.4kbits/s speed=0.0353x elapsed=0:04:09.69    \nframe=  530 fps=2.1 q=30.0 size=    1024KiB time=00:00:08.81 bitrate= 951.4kbits/s speed=0.0352x elapsed=0:04:10.20    \nframe=  530 fps=2.1 q=30.0 size=    1024KiB time=00:00:08.81 bitrate= 951.4kbits/s speed=0.0352x elapsed=0:04:10.70    \nframe=  532 fps=2.1 q=49.0 size=    1024KiB time=00:00:08.85 bitrate= 947.9kbits/s speed=0.0352x elapsed=0:04:11.22    \nframe=  534 fps=2.1 q=47.0 size=    1024KiB time=00:00:08.88 bitrate= 944.3kbits/s speed=0.0353x elapsed=0:04:11.75    \nframe=  538 fps=2.1 q=42.0 size=    1024KiB time=00:00:08.95 bitrate= 937.3kbits/s speed=0.0355x elapsed=0:04:12.26    \nframe=  538 fps=2.1 q=42.0 size=    1024KiB time=00:00:08.95 bitrate= 937.3kbits/s speed=0.0354x elapsed=0:04:12.77    \nframe=  538 fps=2.1 q=42.0 size=    1024KiB time=00:00:08.95 bitrate= 937.3kbits/s speed=0.0353x elapsed=0:04:13.29    \nframe=  542 fps=2.1 q=47.0 size=    1024KiB time=00:00:09.01 bitrate= 930.3kbits/s speed=0.0355x elapsed=0:04:13.81    \nframe=  544 fps=2.1 q=49.0 size=    1024KiB time=00:00:09.05 bitrate= 926.9kbits/s speed=0.0356x elapsed=0:04:14.32    \nframe=  546 fps=2.1 q=33.0 size=    1024KiB time=00:00:09.08 bitrate= 923.5kbits/s speed=0.0356x elapsed=0:04:14.84    \nframe=  546 fps=2.1 q=33.0 size=    1024KiB time=00:00:09.08 bitrate= 923.5kbits/s speed=0.0356x elapsed=0:04:15.35    \nframe=  546 fps=2.1 q=33.0 size=    1024KiB time=00:00:09.08 bitrate= 923.5kbits/s speed=0.0355x elapsed=0:04:15.87    \nframe=  546 fps=2.1 q=33.0 size=    1024KiB time=00:00:09.08 bitrate= 923.5kbits/s speed=0.0354x elapsed=0:04:16.38    \nframe=  550 fps=2.1 q=47.0 size=    1024KiB time=00:00:09.15 bitrate= 916.8kbits/s speed=0.0356x elapsed=0:04:16.90    \nframe=  554 fps=2.2 q=42.0 size=    1024KiB time=00:00:09.21 bitrate= 910.2kbits/s speed=0.0358x elapsed=0:04:17.42    \nframe=  554 fps=2.1 q=42.0 size=    1024KiB time=00:00:09.21 bitrate= 910.2kbits/s speed=0.0357x elapsed=0:04:17.93    \nframe=  556 fps=2.2 q=49.0 size=    1024KiB time=00:00:09.25 bitrate= 906.9kbits/s speed=0.0358x elapsed=0:04:18.44    \nframe=  560 fps=2.2 q=49.0 size=    1024KiB time=00:00:09.31 bitrate= 900.4kbits/s speed=0.036x elapsed=0:04:18.96    \nframe=  562 fps=2.2 q=32.0 size=    1024KiB time=00:00:09.35 bitrate= 897.2kbits/s speed=0.036x elapsed=0:04:19.48    \nframe=  562 fps=2.2 q=32.0 size=    1024KiB time=00:00:09.35 bitrate= 897.2kbits/s speed=0.036x elapsed=0:04:20.00    \nframe=  562 fps=2.2 q=32.0 size=    1024KiB time=00:00:09.35 bitrate= 897.2kbits/s speed=0.0359x elapsed=0:04:20.72    \nframe=  562 fps=2.1 q=32.0 size=    1024KiB time=00:00:09.35 bitrate= 897.2kbits/s speed=0.0358x elapsed=0:04:21.43    \nframe=  566 fps=2.2 q=46.0 size=    1024KiB time=00:00:09.41 bitrate= 890.8kbits/s speed=0.0359x elapsed=0:04:21.96    \nframe=  568 fps=2.2 q=48.0 size=    1024KiB time=00:00:09.45 bitrate= 887.7kbits/s speed=0.036x elapsed=0:04:22.74    \nframe=  570 fps=2.2 q=42.0 size=    1024KiB time=00:00:09.48 bitrate= 884.6kbits/s speed=0.036x elapsed=0:04:23.26    \nframe=  570 fps=2.2 q=42.0 size=    1024KiB time=00:00:09.48 bitrate= 884.6kbits/s speed=0.036x elapsed=0:04:23.77    \nframe=  570 fps=2.2 q=42.0 size=    1024KiB time=00:00:09.48 bitrate= 884.6kbits/s speed=0.0359x elapsed=0:04:24.28    \nframe=  574 fps=2.2 q=46.0 size=    1024KiB time=00:00:09.55 bitrate= 878.4kbits/s speed=0.0361x elapsed=0:04:24.81    \nframe=  576 fps=2.2 q=48.0 size=    1024KiB time=00:00:09.58 bitrate= 875.3kbits/s speed=0.0361x elapsed=0:04:25.32    \nframe=  578 fps=2.2 q=33.0 size=    1024KiB time=00:00:09.61 bitrate= 872.3kbits/s speed=0.0362x elapsed=0:04:25.83    \nframe=  578 fps=2.2 q=33.0 size=    1024KiB time=00:00:09.61 bitrate= 872.3kbits/s speed=0.0361x elapsed=0:04:26.35    \nframe=  578 fps=2.2 q=33.0 size=    1024KiB time=00:00:09.61 bitrate= 872.3kbits/s speed=0.036x elapsed=0:04:26.87    \nframe=  580 fps=2.2 q=49.0 size=    1024KiB time=00:00:09.65 bitrate= 869.3kbits/s speed=0.0361x elapsed=0:04:27.38    \nframe=  586 fps=2.2 q=42.0 size=    1024KiB time=00:00:09.75 bitrate= 860.4kbits/s speed=0.0364x elapsed=0:04:27.91    \nframe=  586 fps=2.2 q=42.0 size=    1024KiB time=00:00:09.75 bitrate= 860.4kbits/s speed=0.0363x elapsed=0:04:28.41    \nframe=  590 fps=2.2 q=51.0 size=    1024KiB time=00:00:09.81 bitrate= 854.5kbits/s speed=0.0365x elapsed=0:04:28.93    \nframe=  590 fps=2.2 q=51.0 size=    1024KiB time=00:00:09.81 bitrate= 854.5kbits/s speed=0.0364x elapsed=0:04:29.45    \n[out#0/matroska @ 00000134ca708ec0] video:1835KiB audio:0KiB subtitle:0KiB other streams:0KiB global headers:0KiB muxing overhead: 0.180689%\nframe=  600 fps=2.2 q=50.0 Lsize=    1839KiB time=00:00:09.98 bitrate=1508.8kbits/s speed=0.037x elapsed=0:04:29.89    \n",
  "seconds": 272.71092677116394,
  "probe_out": {}
}